<svg xmlns="http://www.w3.org/2000/svg" width="13.753" height="13.753" viewBox="0 0 13.753 13.753">
  <g id="copyright" transform="translate(-4.5 -4.5)">
    <path id="Path_9" data-name="Path 9" d="M16.026,13.769l1.03-1.029a2.9,2.9,0,1,0,.128,4.208l-.953-.953h-.152a1.452,1.452,0,1,1-.053-2.226Z" transform="translate(-3.666 -3.527)" fill="#fff"/>
    <path id="Path_10" data-name="Path 10" d="M11.376,4.5A6.876,6.876,0,1,1,4.5,11.376,6.876,6.876,0,0,1,11.376,4.5Zm0,1.528a5.348,5.348,0,1,1-5.348,5.348A5.348,5.348,0,0,1,11.376,6.028Z" transform="translate(0 0)" fill="#fff" fill-rule="evenodd"/>
  </g>
</svg>
