<svg xmlns="http://www.w3.org/2000/svg" width="45.521" height="41.64" viewBox="0 0 45.521 41.64">
  <g id="school" transform="translate(-1.123 -3.375)">
    <path id="Path_13" data-name="Path 13" d="M21.5,28.354a1.387,1.387,0,0,1-.732-.211L7.857,20.13a.688.688,0,0,0-.738,0,.816.816,0,0,0-.369.694v7.529a1.628,1.628,0,0,0,.759,1.4l13.276,8.008a1.374,1.374,0,0,0,1.433,0L35.5,29.755a1.628,1.628,0,0,0,.759-1.4V20.825a.816.816,0,0,0-.369-.694.688.688,0,0,0-.738,0L22.235,28.143a1.386,1.386,0,0,1-.733.211Z" transform="translate(2.384 7.051)" fill="#449620"/>
    <path id="Path_14" data-name="Path 14" d="M46.636,17.639v-.011a1.609,1.609,0,0,0-.759-1.229L24.635,3.587a1.448,1.448,0,0,0-1.506,0L1.886,16.4a1.647,1.647,0,0,0,0,2.78L23.128,31.991a1.448,1.448,0,0,0,1.506,0L43.325,20.72a.182.182,0,0,1,.19,0,.2.2,0,0,1,.095.173V35.36A1.6,1.6,0,0,0,45.054,37a1.472,1.472,0,0,0,1.119-.44,1.645,1.645,0,0,0,.471-1.159V17.788q0-.075-.008-.149Z" fill="#449620"/>
  </g>
</svg>
