<svg xmlns="http://www.w3.org/2000/svg" width="50.38" height="50.416" viewBox="0 0 50.38 50.416">
  <path id="instagram" d="M37.841.039h-25.2A12.585,12.585,0,0,0,.052,12.588V37.906A12.585,12.585,0,0,0,12.643,50.455h25.2A12.585,12.585,0,0,0,50.432,37.906V12.588A12.582,12.582,0,0,0,37.841.04Zm7.927,37.866a7.923,7.923,0,0,1-7.927,7.9h-25.2a7.923,7.923,0,0,1-7.927-7.9V21.554h9.961a11.821,11.821,0,0,0-1.137,5.064,11.959,11.959,0,0,0,23.918,0,11.8,11.8,0,0,0-1.137-5.064h9.446V37.906ZM20.535,26.617A4.964,4.964,0,1,1,25.5,31.564a4.961,4.961,0,0,1-4.964-4.947Zm25.233-9.711H32.421a11.951,11.951,0,0,0-13.841,0H4.716V12.588a7.923,7.923,0,0,1,7.927-7.9h25.2a7.922,7.922,0,0,1,7.927,7.9v4.319Zm-5.053-9.4H36.393a1.4,1.4,0,0,0-1.4,1.394v4.309a1.4,1.4,0,0,0,1.4,1.394h4.323a1.4,1.4,0,0,0,1.4-1.394V8.9A1.4,1.4,0,0,0,40.715,7.506Z" transform="translate(-0.052 -0.039)" fill="#fff"/>
</svg>
