<svg xmlns="http://www.w3.org/2000/svg" width="78.731" height="110.44" viewBox="0 0 78.731 110.44">
  <path id="child" d="M76.816,26.517,56.861,46.473v56.312a7.637,7.637,0,0,1-13.056,5.4,7.367,7.367,0,0,1-2.255-5.4V76.54H37.175v26.245a7.7,7.7,0,0,1-7.656,7.656,7.7,7.7,0,0,1-7.656-7.656V46.473L1.915,26.517A6.328,6.328,0,0,1,0,21.87a6.328,6.328,0,0,1,1.915-4.647A6.515,6.515,0,0,1,6.6,15.308a6.288,6.288,0,0,1,4.613,1.915L26.79,32.8H51.941L67.521,17.223a6.6,6.6,0,0,1,9.295,0A6.515,6.515,0,0,1,78.731,21.9a6.288,6.288,0,0,1-1.915,4.613ZM54.673,15.308A14.754,14.754,0,0,1,50.2,26.139a14.754,14.754,0,0,1-10.831,4.477,14.754,14.754,0,0,1-10.831-4.477,14.754,14.754,0,0,1-4.477-10.831A14.754,14.754,0,0,1,28.534,4.477,14.754,14.754,0,0,1,39.365,0,14.754,14.754,0,0,1,50.2,4.477,14.754,14.754,0,0,1,54.673,15.308Z" fill="#449620"/>
</svg>
