<svg xmlns="http://www.w3.org/2000/svg" width="98.27" height="98.267" viewBox="0 0 98.27 98.267">
  <path id="livejournal" d="M58.383,89.076,2.654,33.542A9.77,9.77,0,0,1,.115,27.5a19.407,19.407,0,0,1,1.054-8.346,18.665,18.665,0,0,1,4.46-7.385l6.139-6.139a18.691,18.691,0,0,1,7.385-4.46A19.4,19.4,0,0,1,27.5.115a9.76,9.76,0,0,1,6.044,2.54L89.079,58.383l9.209,39.9ZM22.607,27.307A14.727,14.727,0,0,0,18.865,34.6q-.959,4.411.382,7.193a1.274,1.274,0,0,1-.049.287l-.049.191L51.76,74.878a14.742,14.742,0,0,0,2.829-5.467,22.843,22.843,0,0,0,1.054-6.139,25.306,25.306,0,0,0-.336-4.891L23.47,26.539ZM31.239,8.124q-2.3-2.493-7.578-1.822a14.377,14.377,0,0,0-8.633,4.028l-4.7,4.7A14.377,14.377,0,0,0,6.3,23.664q-.672,5.276,1.822,7.578l4.413,4.509a19.231,19.231,0,0,1,5.372-11.7l6.139-6.139a18.794,18.794,0,0,1,11.7-5.276ZM43.42,20.3q-2.3-2.4-7.529-1.726a14.33,14.33,0,0,0-8.583,4.028l-.767.767L58.383,55.316a25.329,25.329,0,0,0,4.891.336A22.867,22.867,0,0,0,69.413,54.6a14.714,14.714,0,0,0,5.467-2.829ZM83.7,60.685l-5.276-5.276a29.553,29.553,0,0,1-8.2,4.219,29.413,29.413,0,0,1-8.775,1.729,27.3,27.3,0,0,1-1.68,8.873,30.274,30.274,0,0,1-4.266,8.3l5.181,5.181L75.268,86.49A16.512,16.512,0,0,1,86.487,75.265Z" transform="translate(-0.017 -0.017)" fill="#449620"/>
</svg>
