<svg xmlns="http://www.w3.org/2000/svg" width="62" height="50.416" viewBox="0 0 62 50.416">
  <path id="twitter" d="M22.476,56.416c23.395,0,36.2-19.4,36.2-36.2,0-.546,0-1.091-.025-1.637A25.916,25.916,0,0,0,65,11.977a25.784,25.784,0,0,1-7.316,2.013,12.8,12.8,0,0,0,5.6-7.047A25.306,25.306,0,0,1,55.2,10.022a12.72,12.72,0,0,0-22,8.707,14.055,14.055,0,0,0,.322,2.9A36.127,36.127,0,0,1,7.292,8.331a12.757,12.757,0,0,0,3.945,16.994A12.867,12.867,0,0,1,5.48,23.738v.174a12.751,12.751,0,0,0,10.2,12.481,12.4,12.4,0,0,1-3.348.446,12.553,12.553,0,0,1-2.387-.223A12.722,12.722,0,0,0,21.829,45.45a25.515,25.515,0,0,1-15.8,5.456A24.471,24.471,0,0,1,3,50.733a36.189,36.189,0,0,0,19.478,5.681" transform="translate(-3 -6)" fill="#fff"/>
</svg>
