<svg xmlns="http://www.w3.org/2000/svg" width="21.348" height="42.695" viewBox="0 0 21.348 42.695">
  <path id="vial" d="M20.013,2.668H18.679V34.69a7.717,7.717,0,0,1-2.335,5.67,7.726,7.726,0,0,1-5.67,2.335A7.714,7.714,0,0,1,5,40.36a7.722,7.722,0,0,1-2.335-5.67V2.668H1.334a1.282,1.282,0,0,1-.938-.4A1.282,1.282,0,0,1,0,1.334,1.282,1.282,0,0,1,.4.4,1.282,1.282,0,0,1,1.334,0H20.013a1.282,1.282,0,0,1,.938.4,1.282,1.282,0,0,1,.4.938,1.282,1.282,0,0,1-.4.938A1.282,1.282,0,0,1,20.013,2.668ZM12.008,34.69a1.353,1.353,0,1,0-.938-.4A1.282,1.282,0,0,0,12.008,34.69ZM7.984,29.353a2.7,2.7,0,0,0,2.69-2.69,2.519,2.519,0,0,0-.792-1.876,2.625,2.625,0,0,0-1.9-.771,2.632,2.632,0,0,0-2.647,2.647,2.625,2.625,0,0,0,.771,1.9A2.519,2.519,0,0,0,7.984,29.353ZM16.011,2.668H5.337V16.011H16.011ZM14.676,21.348a1.353,1.353,0,1,0,.938.4A1.282,1.282,0,0,0,14.676,21.348Z" fill="#449620"/>
</svg>
