<svg xmlns="http://www.w3.org/2000/svg" width="67.851" height="76.785" viewBox="0 0 67.851 76.785">
  <g id="disabled" transform="translate(-5.063 -2.25)">
    <path id="Path_39" data-name="Path 39" d="M24.892,8.093A5.843,5.843,0,1,1,19.049,2.25,5.843,5.843,0,0,1,24.892,8.093Z" transform="translate(11.706)" fill="#449620"/>
    <path id="Path_40" data-name="Path 40" d="M58.623,49.761l-8.217,2.055L47.12,36.477A4.134,4.134,0,0,0,43.1,33.228H27.9l-1.107-9.6H45.577V18.144H26.155L25.446,12a4.115,4.115,0,0,0-4.558-3.615l-6.81.785,3.41,29.538h24.5l4.244,19.8,13.721-3.43Z" transform="translate(12.958 8.786)" fill="#449620"/>
    <path id="Path_41" data-name="Path 41" d="M31.113,58.174a20.568,20.568,0,0,1-7.754-39.615l-.648-5.614A26.053,26.053,0,1,0,53.4,51.085l-1.723-7.993A21.838,21.838,0,0,1,31.113,58.176Z" transform="translate(0 15.374)" fill="#449620"/>
  </g>
</svg>
